<svg width="264" height="46" xmlns="http://www.w3.org/2000/svg" xmlns:xlink="http://www.w3.org/1999/xlink" xml:space="preserve" overflow="hidden"><defs><clipPath id="clip0"><rect x="508" y="64" width="264" height="46"/></clipPath><clipPath id="clip1"><rect x="508" y="64" width="264" height="46"/></clipPath><clipPath id="clip2"><rect x="508" y="65" width="264" height="45"/></clipPath><clipPath id="clip3"><rect x="508" y="65" width="264" height="45"/></clipPath><clipPath id="clip4"><rect x="508" y="65" width="264" height="45"/></clipPath></defs><g clip-path="url(#clip0)" transform="translate(-508 -64)"><g clip-path="url(#clip1)"><g clip-path="url(#clip2)"><g clip-path="url(#clip3)"><g clip-path="url(#clip4)"><path d="M55.3599 6.06839 62.5906 6.06839 62.5906 38.938 55.3599 38.938Z" fill="#FFFFFF" fill-rule="nonzero" fill-opacity="1" transform="matrix(1.00604 0 0 1 508 65.0007)"/><path d="M78.4134 6.06839 71.1815 6.06839 71.1815 38.938 94.8019 38.938 94.8019 32.3643 78.4134 32.3643 78.4134 6.06839Z" fill="#FFFFFF" fill-rule="nonzero" fill-opacity="1" transform="matrix(1.00604 0 0 1 508 65.0007)"/><path d="M107.33 6.06839 100.098 6.06839 100.098 38.938 123.718 38.938 123.718 32.3643 107.33 32.3643 107.33 6.06839Z" fill="#FFFFFF" fill-rule="nonzero" fill-opacity="1" transform="matrix(1.00604 0 0 1 508 65.0007)"/><path d="M129.174 6.06839 136.405 6.06839 136.405 38.938 129.174 38.938Z" fill="#FFFFFF" fill-rule="nonzero" fill-opacity="1" transform="matrix(1.00604 0 0 1 508 65.0007)"/><path d="M167.066 26.3062 151.665 6.06839 144.996 6.06839 144.996 38.938 152.133 38.938 152.133 18.0432 168.052 38.938 174.204 38.938 174.204 6.06839 167.066 6.06839 167.066 26.3062Z" fill="#FFFFFF" fill-rule="nonzero" fill-opacity="1" transform="matrix(1.00604 0 0 1 508 65.0007)"/><path d="M198.559 5.50527C188.416 5.50527 181.044 13.1589 181.044 22.5032L181.044 22.597C181.044 31.9413 188.322 39.5024 198.465 39.5024 208.607 39.5024 215.978 31.8488 215.978 22.5032L215.978 22.4093C215.978 13.065 208.701 5.50527 198.559 5.50527ZM208.42 22.597C208.42 28.2322 204.381 32.8336 198.559 32.8336 192.736 32.8336 188.602 28.1383 188.602 22.5032L188.602 22.4093C188.602 16.7742 192.642 12.1728 198.465 12.1728 204.288 12.1728 208.418 16.8694 208.418 22.5032L208.418 22.597Z" fill="#FFFFFF" fill-rule="nonzero" fill-opacity="1" transform="matrix(1.00604 0 0 1 508 65.0007)"/><path d="M222.977 6.06839 230.211 6.06839 230.211 38.938 222.977 38.938Z" fill="#FFFFFF" fill-rule="nonzero" fill-opacity="1" transform="matrix(1.00604 0 0 1 508 65.0007)"/><path d="M252.004 19.2646C246.323 17.8079 244.912 17.1046 244.912 14.9447L244.912 14.8509C244.912 13.2553 246.369 11.9876 249.138 11.9876 251.908 11.9876 254.774 13.2078 257.684 15.2276L261.442 9.78143C258.109 7.10465 254.021 5.60298 249.232 5.60298 242.518 5.60298 237.728 9.54743 237.728 15.5104L237.728 15.6043C237.728 22.1316 242.002 23.9637 248.623 25.6531 254.117 27.0622 255.243 28.0007 255.243 29.8316L255.243 29.9254C255.243 31.8514 253.458 33.0252 250.5 33.0252 246.743 33.0252 243.645 31.4746 240.686 29.0331L236.413 34.1514C240.357 37.6729 245.38 39.4111 250.36 39.4111 257.449 39.4111 262.428 35.7482 262.428 29.2221L262.428 29.1283C262.428 23.3993 258.672 21.0054 252.003 19.2671Z" fill="#FFFFFF" fill-rule="nonzero" fill-opacity="1" transform="matrix(1.00604 0 0 1 508 65.0007)"/><path d="M24.2157 32.8825 24.2157 12.1149 31.1391 12.1149 31.1391 0-0.0154281 0-0.0154281 12.1149 6.90794 12.1149 6.90794 32.8825-0.0154281 32.8825-0.0154281 44.9987 31.1378 44.9987 31.1378 32.8825 24.2144 32.8825ZM29.4073 43.2669 1.71509 43.2669 1.71509 34.6143 6.90794 34.6143C7.86191 34.6143 8.63846 33.8377 8.63846 32.8825L8.63846 12.1149C8.63846 11.1584 7.86191 10.3844 6.90794 10.3844L1.71509 10.3844 1.71509 1.73181 29.4073 1.73181 29.4073 10.3844 24.2157 10.3844C23.2592 10.3844 22.4839 11.1584 22.4839 12.1149L22.4839 32.8825C22.4839 33.839 23.2592 34.6143 24.2157 34.6143L29.4073 34.6143 29.4073 43.2669Z" fill="#FFFFFF" fill-rule="nonzero" fill-opacity="1" transform="matrix(1.00604 0 0 1 508 65.0007)"/><path d="M24.2157 10.3844 29.4073 10.3844 29.4073 1.73052 1.71509 1.73052 1.71509 10.3844 6.90794 10.3844C7.86191 10.3844 8.63846 11.1584 8.63846 12.1162L8.63846 32.8837C8.63846 33.8377 7.86191 34.6143 6.90794 34.6143L1.71509 34.6143 1.71509 43.2669 29.4073 43.2669 29.4073 34.6143 24.2157 34.6143C23.2592 34.6143 22.4839 33.8377 22.4839 32.8837L22.4839 12.1149C22.4839 11.1584 23.2592 10.3831 24.2157 10.3831" fill="#F15A31" fill-rule="nonzero" fill-opacity="1" transform="matrix(1.00604 0 0 1 508 65.0007)"/></g></g></g></g></g></svg>